<svg width="220" height="30" viewBox="0 0 220 30" fill="none" xmlns="http://www.w3.org/2000/svg">
<path d="M21.846 0.299998C22.502 0.299998 23.035 0.518665 23.445 0.955999C23.855 1.39333 24.06 1.94 24.06 2.596V26.499C24.06 27.2097 23.814 27.811 23.322 28.303C22.8573 28.7677 22.2697 29 21.559 29C21.2037 29 20.8347 28.9453 20.452 28.836C20.0967 28.6993 19.8233 28.5217 19.632 28.303L3.519 7.844L4.585 7.188V26.704C4.585 27.36 4.36633 27.9067 3.929 28.344C3.519 28.7813 2.97233 29 2.289 29C1.633 29 1.1 28.7813 0.69 28.344C0.28 27.9067 0.0750001 27.36 0.0750001 26.704V2.801C0.0750001 2.09033 0.307334 1.50267 0.772 1.038C1.264 0.545998 1.86533 0.299998 2.576 0.299998C2.95867 0.299998 3.355 0.381999 3.765 0.546C4.175 0.682666 4.47567 0.901333 4.667 1.202L20.288 21.128L19.591 21.62V2.596C19.591 1.94 19.796 1.39333 20.206 0.955999C20.616 0.518665 21.1627 0.299998 21.846 0.299998ZM40.1464 29.41C37.8231 29.41 35.8004 28.9317 34.0784 27.975C32.3837 26.991 31.0717 25.6653 30.1424 23.998C29.2404 22.3307 28.7894 20.4447 28.7894 18.34C28.7894 15.88 29.2814 13.789 30.2654 12.067C31.2767 10.3177 32.5887 8.97833 34.2014 8.049C35.8141 7.11967 37.5224 6.655 39.3264 6.655C40.7204 6.655 42.0324 6.942 43.2624 7.516C44.5197 8.09 45.6267 8.88267 46.5834 9.894C47.5401 10.878 48.2917 12.026 48.8384 13.338C49.4124 14.65 49.6994 16.044 49.6994 17.52C49.6721 18.176 49.4124 18.709 48.9204 19.119C48.4284 19.529 47.8544 19.734 47.1984 19.734H31.5364L30.3064 15.634H45.3534L44.4514 16.454V15.347C44.3967 14.5543 44.1097 13.8437 43.5904 13.215C43.0984 12.5863 42.4697 12.0943 41.7044 11.739C40.9664 11.3563 40.1737 11.165 39.3264 11.165C38.5064 11.165 37.7411 11.2743 37.0304 11.493C36.3197 11.7117 35.7047 12.0807 35.1854 12.6C34.6661 13.1193 34.2561 13.8163 33.9554 14.691C33.6547 15.5657 33.5044 16.6727 33.5044 18.012C33.5044 19.488 33.8051 20.7453 34.4064 21.784C35.0351 22.7953 35.8277 23.5743 36.7844 24.121C37.7684 24.6403 38.8071 24.9 39.9004 24.9C40.9117 24.9 41.7181 24.818 42.3194 24.654C42.9207 24.49 43.3991 24.2987 43.7544 24.08C44.1371 23.834 44.4787 23.629 44.7794 23.465C45.2714 23.219 45.7361 23.096 46.1734 23.096C46.7747 23.096 47.2667 23.301 47.6494 23.711C48.0594 24.121 48.2644 24.5993 48.2644 25.146C48.2644 25.884 47.8817 26.5537 47.1164 27.155C46.4057 27.7563 45.4081 28.2893 44.1234 28.754C42.8387 29.1913 41.5131 29.41 40.1464 29.41ZM54.244 7.475H63.961C64.617 7.475 65.1637 7.69367 65.601 8.131C66.0383 8.56833 66.257 9.115 66.257 9.771C66.257 10.3997 66.0383 10.9327 65.601 11.37C65.1637 11.78 64.617 11.985 63.961 11.985H54.244C53.588 11.985 53.0413 11.7663 52.604 11.329C52.1667 10.8917 51.948 10.345 51.948 9.689C51.948 9.06033 52.1667 8.541 52.604 8.131C53.0413 7.69367 53.588 7.475 54.244 7.475ZM58.631 2.35C59.3417 2.35 59.9157 2.596 60.353 3.088C60.8177 3.55267 61.05 4.14033 61.05 4.851V23.096C61.05 23.4787 61.1183 23.793 61.255 24.039C61.419 24.285 61.624 24.4627 61.87 24.572C62.1433 24.6813 62.4303 24.736 62.731 24.736C63.059 24.736 63.3597 24.6813 63.633 24.572C63.9063 24.4353 64.2207 24.367 64.576 24.367C64.9587 24.367 65.3003 24.5447 65.601 24.9C65.929 25.2553 66.093 25.7473 66.093 26.376C66.093 27.1413 65.6693 27.77 64.822 28.262C64.002 28.754 63.1137 29 62.157 29C61.583 29 60.9407 28.959 60.23 28.877C59.5467 28.7677 58.8907 28.5353 58.262 28.18C57.6607 27.7973 57.155 27.2233 56.745 26.458C56.335 25.6927 56.13 24.6403 56.13 23.301V4.851C56.13 4.14033 56.3623 3.55267 56.827 3.088C57.319 2.596 57.9203 2.35 58.631 2.35Z" fill="#007BFA"/>
<path d="M84.0174 0.299998C86.6414 0.299998 88.5957 0.914998 89.8804 2.145C91.165 3.375 91.8074 5.19267 91.8074 7.598C91.8074 8.88267 91.493 10.017 90.8644 11.001C90.2357 11.9577 89.3064 12.7093 88.0764 13.256C86.8464 13.7753 85.3294 14.035 83.5254 14.035L83.6894 12.19C84.5367 12.19 85.507 12.313 86.6004 12.559C87.6937 12.7777 88.746 13.1877 89.7574 13.789C90.796 14.363 91.6434 15.183 92.2994 16.249C92.9827 17.2877 93.3244 18.627 93.3244 20.267C93.3244 22.071 93.0237 23.547 92.4224 24.695C91.8484 25.843 91.083 26.7313 90.1264 27.36C89.1697 27.9887 88.1447 28.426 87.0514 28.672C85.958 28.8907 84.9057 29 83.8944 29H73.6854C72.9747 29 72.3734 28.7677 71.8814 28.303C71.4167 27.811 71.1844 27.2097 71.1844 26.499V2.801C71.1844 2.09033 71.4167 1.50267 71.8814 1.038C72.3734 0.545998 72.9747 0.299998 73.6854 0.299998H84.0174ZM83.2794 5.138H75.9814L76.5144 4.482V11.903L76.0224 11.534H83.4024C84.195 11.534 84.9057 11.2743 85.5344 10.755C86.163 10.2357 86.4774 9.484 86.4774 8.5C86.4774 7.32467 86.1767 6.47733 85.5754 5.958C85.0014 5.41133 84.236 5.138 83.2794 5.138ZM83.6074 16.372H76.1454L76.5144 16.044V24.695L76.1044 24.285H83.8944C85.1517 24.285 86.1494 23.957 86.8874 23.301C87.6254 22.6177 87.9944 21.6063 87.9944 20.267C87.9944 19.037 87.7484 18.1487 87.2564 17.602C86.7644 17.0553 86.1767 16.7137 85.4934 16.577C84.81 16.4403 84.1814 16.372 83.6074 16.372ZM115.599 6.655C116.309 6.655 116.897 6.88733 117.362 7.352C117.826 7.81667 118.059 8.418 118.059 9.156V26.499C118.059 27.2097 117.826 27.811 117.362 28.303C116.897 28.7677 116.309 29 115.599 29C114.888 29 114.3 28.7677 113.836 28.303C113.371 27.811 113.139 27.2097 113.139 26.499V24.49L114.041 24.859C114.041 25.2143 113.849 25.6517 113.467 26.171C113.084 26.663 112.565 27.155 111.909 27.647C111.253 28.139 110.474 28.5627 109.572 28.918C108.697 29.246 107.74 29.41 106.702 29.41C104.816 29.41 103.107 28.9317 101.577 27.975C100.046 26.991 98.8296 25.6517 97.9276 23.957C97.0529 22.235 96.6156 20.267 96.6156 18.053C96.6156 15.8117 97.0529 13.8437 97.9276 12.149C98.8296 10.427 100.032 9.08767 101.536 8.131C103.039 7.147 104.706 6.655 106.538 6.655C107.713 6.655 108.793 6.83267 109.777 7.188C110.761 7.54333 111.608 7.99433 112.319 8.541C113.057 9.08767 113.617 9.648 114 10.222C114.41 10.7687 114.615 11.2333 114.615 11.616L113.139 12.149V9.156C113.139 8.44533 113.371 7.85767 113.836 7.393C114.3 6.901 114.888 6.655 115.599 6.655ZM107.317 24.9C108.519 24.9 109.572 24.5993 110.474 23.998C111.376 23.3967 112.073 22.5767 112.565 21.538C113.084 20.4993 113.344 19.3377 113.344 18.053C113.344 16.741 113.084 15.5657 112.565 14.527C112.073 13.4883 111.376 12.6683 110.474 12.067C109.572 11.4657 108.519 11.165 107.317 11.165C106.141 11.165 105.103 11.4657 104.201 12.067C103.299 12.6683 102.588 13.4883 102.069 14.527C101.577 15.5657 101.331 16.741 101.331 18.053C101.331 19.3377 101.577 20.4993 102.069 21.538C102.588 22.5767 103.299 23.3967 104.201 23.998C105.103 24.5993 106.141 24.9 107.317 24.9ZM137.367 24.49C138.023 24.49 138.569 24.7087 139.007 25.146C139.444 25.556 139.663 26.089 139.663 26.745C139.663 27.3737 139.444 27.9067 139.007 28.344C138.569 28.7813 138.023 29 137.367 29H124.165C123.481 29 122.935 28.754 122.525 28.262C122.115 27.77 121.923 27.278 121.951 26.786C121.978 26.376 122.033 26.0207 122.115 25.72C122.197 25.392 122.402 25.023 122.73 24.613L132.939 11.411L132.857 11.985H124.534C123.878 11.985 123.331 11.7663 122.894 11.329C122.456 10.8917 122.238 10.345 122.238 9.689C122.238 9.06033 122.456 8.541 122.894 8.131C123.331 7.69367 123.878 7.475 124.534 7.475H137.162C137.79 7.475 138.323 7.70733 138.761 8.172C139.198 8.63667 139.389 9.22433 139.335 9.935C139.307 10.2083 139.253 10.4817 139.171 10.755C139.116 11.0283 138.938 11.3563 138.638 11.739L128.593 24.736V24.49H137.367ZM161.203 6.655C161.914 6.655 162.501 6.88733 162.966 7.352C163.431 7.81667 163.663 8.418 163.663 9.156V26.499C163.663 27.2097 163.431 27.811 162.966 28.303C162.501 28.7677 161.914 29 161.203 29C160.492 29 159.905 28.7677 159.44 28.303C158.975 27.811 158.743 27.2097 158.743 26.499V24.49L159.645 24.859C159.645 25.2143 159.454 25.6517 159.071 26.171C158.688 26.663 158.169 27.155 157.513 27.647C156.857 28.139 156.078 28.5627 155.176 28.918C154.301 29.246 153.345 29.41 152.306 29.41C150.42 29.41 148.712 28.9317 147.181 27.975C145.65 26.991 144.434 25.6517 143.532 23.957C142.657 22.235 142.22 20.267 142.22 18.053C142.22 15.8117 142.657 13.8437 143.532 12.149C144.434 10.427 145.637 9.08767 147.14 8.131C148.643 7.147 150.311 6.655 152.142 6.655C153.317 6.655 154.397 6.83267 155.381 7.188C156.365 7.54333 157.212 7.99433 157.923 8.541C158.661 9.08767 159.221 9.648 159.604 10.222C160.014 10.7687 160.219 11.2333 160.219 11.616L158.743 12.149V9.156C158.743 8.44533 158.975 7.85767 159.44 7.393C159.905 6.901 160.492 6.655 161.203 6.655ZM152.921 24.9C154.124 24.9 155.176 24.5993 156.078 23.998C156.98 23.3967 157.677 22.5767 158.169 21.538C158.688 20.4993 158.948 19.3377 158.948 18.053C158.948 16.741 158.688 15.5657 158.169 14.527C157.677 13.4883 156.98 12.6683 156.078 12.067C155.176 11.4657 154.124 11.165 152.921 11.165C151.746 11.165 150.707 11.4657 149.805 12.067C148.903 12.6683 148.192 13.4883 147.673 14.527C147.181 15.5657 146.935 16.741 146.935 18.053C146.935 19.3377 147.181 20.4993 147.673 21.538C148.192 22.5767 148.903 23.3967 149.805 23.998C150.707 24.5993 151.746 24.9 152.921 24.9ZM171.163 28.959C170.371 28.959 169.756 28.754 169.318 28.344C168.908 27.9067 168.703 27.2917 168.703 26.499V25.802C168.703 25.0093 168.908 24.408 169.318 23.998C169.756 23.5607 170.371 23.342 171.163 23.342H171.696C172.489 23.342 173.09 23.5607 173.5 23.998C173.938 24.408 174.156 25.0093 174.156 25.802V26.499C174.156 27.2917 173.938 27.9067 173.5 28.344C173.09 28.754 172.489 28.959 171.696 28.959H171.163ZM195.477 7.065C196.188 7.065 196.775 7.311 197.24 7.803C197.705 8.26767 197.937 8.85533 197.937 9.566V19.98C197.937 22.8773 197.131 25.1733 195.518 26.868C193.905 28.5627 191.582 29.41 188.548 29.41C185.514 29.41 183.191 28.5627 181.578 26.868C179.993 25.1733 179.2 22.8773 179.2 19.98V9.566C179.2 8.85533 179.432 8.26767 179.897 7.803C180.362 7.311 180.949 7.065 181.66 7.065C182.371 7.065 182.958 7.311 183.423 7.803C183.888 8.26767 184.12 8.85533 184.12 9.566V19.98C184.12 21.6473 184.489 22.891 185.227 23.711C185.965 24.5037 187.072 24.9 188.548 24.9C190.051 24.9 191.172 24.5037 191.91 23.711C192.648 22.891 193.017 21.6473 193.017 19.98V9.566C193.017 8.85533 193.249 8.26767 193.714 7.803C194.179 7.311 194.766 7.065 195.477 7.065ZM217.245 24.49C217.901 24.49 218.447 24.7087 218.885 25.146C219.322 25.556 219.541 26.089 219.541 26.745C219.541 27.3737 219.322 27.9067 218.885 28.344C218.447 28.7813 217.901 29 217.245 29H204.043C203.359 29 202.813 28.754 202.403 28.262C201.993 27.77 201.801 27.278 201.829 26.786C201.856 26.376 201.911 26.0207 201.993 25.72C202.075 25.392 202.28 25.023 202.608 24.613L212.817 11.411L212.735 11.985H204.412C203.756 11.985 203.209 11.7663 202.772 11.329C202.334 10.8917 202.116 10.345 202.116 9.689C202.116 9.06033 202.334 8.541 202.772 8.131C203.209 7.69367 203.756 7.475 204.412 7.475H217.04C217.668 7.475 218.201 7.70733 218.639 8.172C219.076 8.63667 219.267 9.22433 219.213 9.935C219.185 10.2083 219.131 10.4817 219.049 10.755C218.994 11.0283 218.816 11.3563 218.516 11.739L208.471 24.736V24.49H217.245Z" fill="#232222"/>
</svg>
